<?xml version="1.0" encoding="utf-8"?>
<!-- Generator: Adobe Illustrator 18.1.0, SVG Export Plug-In . SVG Version: 6.00 Build 0)  -->
<svg version="1.1" id="Capa_1" xmlns="http://www.w3.org/2000/svg" xmlns:xlink="http://www.w3.org/1999/xlink" x="0px" y="0px"
	 viewBox="0 0 44.5 44.5" enable-background="new 0 0 44.5 44.5" xml:space="preserve">
<g>
	<path fill="#A38E63" d="M22.25,43.044c-11.466,0-20.794-9.328-20.794-20.794S10.784,1.456,22.25,1.456s20.794,9.328,20.794,20.794
		S33.716,43.044,22.25,43.044z M22.25,2.456c-10.915,0-19.794,8.88-19.794,19.794s8.879,19.794,19.794,19.794
		s19.794-8.88,19.794-19.794S33.165,2.456,22.25,2.456z"/>
	<g>
		<g>
			<path fill="#A38E63" d="M24.024,29.084l-6.229-6.229c-0.08-0.08-0.134-0.201-0.134-0.308s0.054-0.228,0.134-0.308l6.229-6.229
				c0.08-0.08,0.201-0.134,0.308-0.134s0.228,0.054,0.308,0.134l0.668,0.668c0.08,0.08,0.134,0.188,0.134,0.308
				c0,0.106-0.054,0.228-0.134,0.308l-5.253,5.253l5.253,5.253c0.08,0.08,0.134,0.201,0.134,0.308s-0.054,0.228-0.134,0.308
				l-0.668,0.668c-0.08,0.08-0.201,0.134-0.308,0.134S24.104,29.164,24.024,29.084z"/>
		</g>
	</g>
</g>
<g>
	<defs>
		<rect id="SVGID_33_" x="990.25" y="1147.25" width="298" height="135"/>
	</defs>
	<clipPath id="SVGID_2_">
		<use xlink:href="#SVGID_33_"  overflow="visible"/>
	</clipPath>
	<g clip-path="url(#SVGID_2_)">
	</g>
</g>
<g>
	<defs>
		<rect id="SVGID_51_" x="2679.25" y="666.25" width="298" height="135"/>
	</defs>
	<clipPath id="SVGID_4_">
		<use xlink:href="#SVGID_51_"  overflow="visible"/>
	</clipPath>
	<g clip-path="url(#SVGID_4_)">
	</g>
</g>
</svg>
