<?xml version="1.0" encoding="utf-8"?>
<!-- Generator: Adobe Illustrator 18.1.0, SVG Export Plug-In . SVG Version: 6.00 Build 0)  -->
<svg version="1.1" id="Capa_1" xmlns="http://www.w3.org/2000/svg" xmlns:xlink="http://www.w3.org/1999/xlink" x="0px" y="0px"
	 viewBox="0 0 155.953 44.294" enable-background="new 0 0 155.953 44.294" xml:space="preserve">
<g>
	<defs>
		<rect id="SVGID_33_" x="120.976" y="3854" width="298" height="135"/>
	</defs>
	<clipPath id="SVGID_2_">
		<use xlink:href="#SVGID_33_"  overflow="visible"/>
	</clipPath>
	<g clip-path="url(#SVGID_2_)">
	</g>
</g>
<g>
	<defs>
		<rect id="SVGID_51_" x="1809.976" y="3373" width="298" height="135"/>
	</defs>
	<clipPath id="SVGID_4_">
		<use xlink:href="#SVGID_51_"  overflow="visible"/>
	</clipPath>
	<g clip-path="url(#SVGID_4_)">
	</g>
</g>
<g>
	<g>
		<path fill="#A38E63" d="M29.797,23.466v0.805H19.22v-0.805h2.373l-2.695-5.59h-8.124l-2.332,5.59h3.177v0.805H4.741v-0.805h2.694
			l9.21-22.119h1.006l10.215,22.119H29.797z M11.136,17.031h7.359l-3.94-8.204L11.136,17.031z"/>
		<path fill="#A38E63" d="M49.906,16.629h0.804v7.642H31.808v-0.805h2.011V2.553h-2.011V1.749h10.456v0.804h-2.413v20.913h4.021
			c0.911,0,1.669-0.066,2.272-0.201c0.604-0.134,1.227-0.415,1.87-0.844C49.275,21.59,49.906,19.659,49.906,16.629z"/>
		<path fill="#A38E63" d="M62.775,24.271H52.72v-0.805h2.011V2.553H52.72V1.749h10.055c1.983,0,3.773,0.328,5.369,0.985
			c1.595,0.657,2.889,1.521,3.881,2.594c2.011,2.226,3.016,4.746,3.016,7.561c0,3.808-1.005,6.656-3.016,8.547
			C70.014,23.325,66.93,24.271,62.775,24.271z M60.764,23.466c2.896,0,4.986-0.784,6.273-2.353s1.931-4.128,1.931-7.682
			c0-3.552-0.697-6.254-2.092-8.104s-3.432-2.775-6.112-2.775V23.466z"/>
		<path fill="#A38E63" d="M101.302,23.466v0.805H90.725v-0.805h2.372l-2.694-5.59h-8.124l-2.332,5.59h3.177v0.805h-6.877v-0.805
			h2.694l9.21-22.119h1.005l10.216,22.119H101.302z M82.641,17.031H90l-3.941-8.204L82.641,17.031z"/>
		<path fill="#A38E63" d="M105.725,23.466h3.218v0.805h-6.435v-0.805h2.413V4.322c-0.858-1.179-1.663-1.77-2.413-1.77V1.749h7.521
			l11.301,13.393V2.553h-3.218V1.749h6.837v0.804h-2.814v22.12h-0.805L105.725,5.328V23.466z"/>
		<path fill="#A38E63" d="M151.211,23.466v0.805h-10.577v-0.805h2.372l-2.694-5.59h-8.124l-2.332,5.59h3.177v0.805h-6.877v-0.805
			h2.694l9.21-22.119h1.005l10.216,22.119H151.211z M132.55,17.031h7.359l-3.941-8.204L132.55,17.031z"/>
	</g>
	<g>
		<path fill="#B3B3B3" d="M47.185,42.947l-0.654-2.875h-2.969l-0.654,2.875h-2.12l2.821-11.438h2.875l2.829,11.438H47.185z
			 M46.133,38.194l-0.607-2.649c-0.037-0.161-0.118-0.565-0.246-1.212c-0.127-0.646-0.204-1.079-0.229-1.298
			c-0.067,0.447-0.153,0.939-0.257,1.477c-0.104,0.538-0.374,1.766-0.811,3.683H46.133z"/>
		<path fill="#B3B3B3" d="M56.953,36.628h3.483v5.844c-0.987,0.421-2.037,0.632-3.148,0.632c-1.324,0-2.345-0.504-3.059-1.512
			s-1.071-2.46-1.071-4.356c0-1.828,0.409-3.26,1.228-4.293c0.818-1.034,1.962-1.551,3.433-1.551c0.908,0,1.776,0.233,2.603,0.701
			l-0.671,1.729c-0.644-0.374-1.246-0.561-1.808-0.561c-0.805,0-1.442,0.359-1.913,1.079c-0.47,0.72-0.705,1.7-0.705,2.941
			c0,1.278,0.17,2.257,0.511,2.938c0.34,0.681,0.835,1.021,1.484,1.021c0.343,0,0.69-0.045,1.044-0.133v-2.61h-1.41V36.628z"/>
		<path fill="#B3B3B3" d="M72.37,31.555v7.372c0,1.355-0.307,2.391-0.919,3.104c-0.613,0.715-1.499,1.072-2.657,1.072
			c-1.133,0-1.995-0.354-2.587-1.064c-0.593-0.709-0.889-1.757-0.889-3.144v-7.341h2.104v7.496c0,1.45,0.48,2.175,1.441,2.175
			c0.446,0,0.792-0.185,1.036-0.554s0.366-0.894,0.366-1.574v-7.543H72.37z"/>
		<path fill="#B3B3B3" d="M77.908,42.947V31.555h1.994v11.393H77.908z"/>
		<path fill="#B3B3B3" d="M87.622,38.514v4.434h-2.12V31.555h2.774c1.174,0,2.04,0.278,2.599,0.834s0.838,1.405,0.838,2.548
			c0,1.439-0.486,2.444-1.457,3.016l2.189,4.995h-2.268l-1.8-4.434H87.622z M87.622,36.69h0.545c0.499,0,0.857-0.142,1.075-0.425
			c0.219-0.283,0.327-0.705,0.327-1.267c0-0.581-0.115-0.996-0.347-1.242c-0.23-0.247-0.588-0.37-1.071-0.37h-0.529V36.69z"/>
		<path fill="#B3B3B3" d="M98.793,38.514v4.434h-2.12V31.555h2.774c1.174,0,2.04,0.278,2.599,0.834s0.838,1.405,0.838,2.548
			c0,1.439-0.486,2.444-1.457,3.016l2.189,4.995h-2.268l-1.8-4.434H98.793z M98.793,36.69h0.545c0.499,0,0.857-0.142,1.075-0.425
			c0.219-0.283,0.327-0.705,0.327-1.267c0-0.581-0.115-0.996-0.347-1.242c-0.23-0.247-0.588-0.37-1.071-0.37h-0.529V36.69z"/>
		<path fill="#B3B3B3" d="M112.98,42.947h-5.136V31.555h5.136v1.832h-3.016v2.711h2.797v1.839h-2.797v3.156h3.016V42.947z"/>
	</g>
</g>
</svg>
